/vscmnt/brussel_pixiu_data/_data_brussel/112/vsc11236/PredSimResults/SUBJ04opt3D/expIG/worker_11.mot
version=1
nRows=5
nColumns=50
inDegrees=yes
endheader
                time	         pelvis_tilt	         pelvis_list	     pelvis_rotation	           pelvis_tx	           pelvis_ty	           pelvis_tz	       hip_flexion_r	     hip_adduction_r	      hip_rotation_r	        knee_angle_r	       ankle_angle_r	         mtp_angle_r	       hip_flexion_l	     hip_adduction_l	      hip_rotation_l	        knee_angle_l	       ankle_angle_l	         mtp_angle_l	    lumbar_extension	      lumbar_bending	     lumbar_rotation	 ercspn_r/activation	 intobl_r/activation	 extobl_r/activation	    abd_r/activation	    add_r/activation	hamstrings_r/activation	bifemsh_r/activation	glut_max_r/activation	iliopsoas_r/activation	rect_fem_r/activation	  vasti_r/activation	gastroc_r/activation	 soleus_r/activation	tib_ant_r/activation	 ercspn_l/activation	 intobl_l/activation	 extobl_l/activation	    abd_l/activation	    add_l/activation	hamstrings_l/activation	bifemsh_l/activation	glut_max_l/activation	iliopsoas_l/activation	rect_fem_l/activation	  vasti_l/activation	gastroc_l/activation	 soleus_l/activation	tib_ant_l/activation	
          0.95305096	         -6.42987223	         -0.82787535	          6.99849531	          1.52488153	          0.86345710	         -0.00547216	         36.41391334	         -1.37963114	         -5.79215913	        -12.72530092	          9.16151804	          0.30424749	        -14.92377215	         -1.00857212	         -3.77149028	         -9.92002642	          5.54770226	         34.81813149	        -11.94532173	          0.73419590	        -10.25032029	          0.13534034	          0.13046416	          0.00999999	          0.02966770	          0.52610816	          0.08161260	          0.09127715	          0.16989537	          0.12690408	          0.01568219	          0.03193857	          0.00999999	          0.00999999	          0.45437972	          0.11935779	          0.00999999	          0.00999999	          0.02806523	          0.01000001	          0.07787306	          0.24393906	          0.01556224	          0.32576782	          0.00999999	          0.01147490	          0.32905833	          0.20731606	          0.00999999	
          0.96258146	         -6.41257211	         -0.85288857	          6.87162962	          1.54359345	          0.86097458	         -0.00519339	         36.40811132	         -1.14772167	         -5.58045074	        -14.77162897	          8.78764885	          0.25970600	        -15.21401864	         -1.19620821	         -4.26105690	        -11.63803726	          4.63219294	         36.60639810	        -11.52249222	          1.13544556	        -10.51363106	          0.11678931	          0.11258151	          0.00999999	          0.08588430	          0.45399480	          0.09275322	          0.07876584	          0.21857677	          0.10950940	          0.01353264	          0.09105338	          0.01556224	          0.02474219	          0.48173800	          0.14836940	          0.00999999	          0.00999999	          0.02421835	          0.08715148	          0.06773399	          0.21050247	          0.01342913	          0.35595774	          0.00999999	          0.00999999	          0.28395448	          0.17889936	          0.00999999	
          0.97211197	         -6.38379091	         -0.93356327	          6.71930228	          1.56238002	          0.85867569	         -0.00483194	         36.21966166	         -0.88700371	         -5.34995086	        -16.58897243	          8.44924979	          0.24775653	        -15.21683046	         -1.47150948	         -4.76862010	        -13.89585036	          3.69632181	         38.22560699	        -11.09691347	          1.59070186	        -10.71772407	          0.10078106	          0.09715002	          0.00999999	          0.15142183	          0.39966160	          0.08162421	          0.06796945	          0.24541343	          0.09449901	          0.01167773	          0.13670770	          0.01342913	          0.02135080	          0.54042425	          0.13384434	          0.00999999	          0.00999999	          0.02089875	          0.07520568	          0.05844973	          0.18164901	          0.01158841	          0.41130863	          0.00999999	          0.00999999	          0.24503299	          0.15437772	          0.00999999	
          0.98164248	         -6.34652669	         -1.04412181	          6.53508596	          1.58098057	          0.85673650	         -0.00435030	         35.93730945	         -0.58133061	         -5.17256837	        -18.18941380	          7.94064239	          0.21538369	        -14.86189742	         -1.81634131	         -5.28840568	        -16.76929196	          2.68141652	         39.56777194	        -10.70555914	          2.06778317	        -10.85810524	          0.08696706	          0.08383372	          0.00999999	          0.18158296	          0.35773072	          0.07289833	          0.05865292	          0.21177474	          0.08154608	          0.01007707	          0.25815999	          0.01158841	          0.01842425	          0.58608763	          0.14976974	          0.00999999	          0.00999999	          0.01803417	          0.08286922	          0.05043807	          0.15675048	          0.00999999	          0.35493078	          0.00999999	          0.00999999	          0.21144645	          0.13321725	          0.00999999	
          0.99117299	         -6.30353359	         -1.18826273	          6.32782042	          1.59924985	          0.85529955	         -0.00376650	         35.57034938	         -0.22903407	         -5.03184761	        -19.64146787	          7.61502036	          0.17321912	        -14.11835005	         -2.24593662	         -5.82086466	        -20.27931866	          1.61552719	         40.31477894	        -10.36471739	          2.57116768	        -10.93888009	          0.07504653	          0.07234268	          0.00999999	          0.23710057	          0.30869676	          0.07444009	          0.05061339	          0.18274689	          0.07036860	          0.00999999	          0.39596113	          0.00999999	          0.01589885	          0.60836519	          0.20084212	          0.00999999	          0.00999999	          0.01556224	          0.10705959	          0.04352455	          0.13526477	          0.00999999	          0.30628061	          0.00999999	          0.00999999	          0.18246360	          0.11495723	          0.00999999	
